<svg xmlns="http://www.w3.org/2000/svg" viewBox="0 0 1010.97 581.1"><defs><style>.cls-1{fill:#1d1d1b;}.cls-2{fill:#008fbc;}</style></defs><g id="TWT_K100_188pt"><path class="cls-1" d="M699.52,182.29q0,3.39-3.2,3.39H663.23c-1.38,0-2.07.75-2.07,2.26v99.85q0,3.39-3.19,3.39H633.73q-3.19,0-3.19-3.39V187.94c0-1.51-.69-2.26-2.07-2.26H595.38q-3.2,0-3.19-3.39v-15.6q0-3.39,3.19-3.39H696.32q3.2,0,3.2,3.39Z" transform="translate(-0.63 -0.63)"></path><path class="cls-1" d="M895.22,165.75a14.24,14.24,0,0,1-.75,3.95L865.33,279.14q-2.07,8.28-4.32,10.91a7.55,7.55,0,0,1-6,2.63H830.17a8.21,8.21,0,0,1-5.92-2.07q-2.16-2.07-3.48-8.65l-17.1-89.48c-.38-1.88-.88-2.82-1.51-2.82s-1.13.87-1.5,2.63l-18,92.31q-.95,4.32-2.91,6.2a8,8,0,0,1-5.74,1.88H747.45q-6,0-8.08-7.71L709.1,169.13a11.72,11.72,0,0,1-.56-3.38c0-1.63.94-2.45,2.82-2.45H735.8a4,4,0,0,1,2.72.66,4.87,4.87,0,0,1,1,2.35l22.93,97.95c.5,1.63,1.07,2.44,1.7,2.44s1.12-.81,1.5-2.44l18-92.12c.62-3.13,1.63-5.39,3-6.77a8.16,8.16,0,0,1,6-2.07h24.63a8.23,8.23,0,0,1,6.11,2.17q2.16,2.16,3.1,7.61l17.11,90a8,8,0,0,0,.75,2.45,1.12,1.12,0,0,0,.94.56c.75,0,1.32-.81,1.69-2.44l22.19-97.39a4.87,4.87,0,0,1,1-2.35,4,4,0,0,1,2.73-.66h19.17C894.22,163.3,895.22,164.12,895.22,165.75Z" transform="translate(-0.63 -0.63)"></path><path class="cls-1" d="M1011.59,182.29q0,3.39-3.19,3.39H975.31c-1.38,0-2.07.75-2.07,2.26v99.85q0,3.39-3.19,3.39H945.81q-3.19,0-3.19-3.39V187.94c0-1.51-.69-2.26-2.07-2.26H907.46q-3.19,0-3.19-3.39v-15.6q0-3.39,3.19-3.39H1008.4q3.2,0,3.19,3.39Z" transform="translate(-0.63 -0.63)"></path></g><g id="bildmarke_313c_205"><path class="cls-2" d="M272.13,450.56h0C192,441.7,129.31,373.71,129.31,291.18S192,140.68,272.14,131.82h0c10-.82,17.53-9.61,17.82-19.92s.28-103.51,0-106.26-2.25-5-5-5a5,5,0,0,0-3.55,1.46h0L6.49,277h0a20.05,20.05,0,0,0,0,28.35h0L281.4,580.26h0a5,5,0,0,0,3.55,1.46c2.76,0,4.73-2.26,5-5s0-95.85,0-106.23S282.16,451.38,272.13,450.56Z" transform="translate(-0.63 -0.63)"></path><path class="cls-2" d="M419.86,291.18c-5.53-.32-254.27-.32-259.81,0a10,10,0,0,0-9.73,10c0,.25,0,.51,0,.76h0C155.85,374.41,216.1,431.5,290,431.5S424.06,374.41,429.57,302c0-.25,0-.51,0-.76A10,10,0,0,0,419.86,291.18Z" transform="translate(-0.63 -0.63)"></path><text x="-0.63" y="-0.63"></text></g></svg>